<?xml version="1.0" standalone="no"?><!DOCTYPE svg PUBLIC "-//W3C//DTD SVG 1.1//EN" "http://www.w3.org/Graphics/SVG/1.1/DTD/svg11.dtd"><svg t="1630504780265" class="icon" viewBox="0 0 1024 1024" version="1.1" xmlns="http://www.w3.org/2000/svg" p-id="2335" xmlns:xlink="http://www.w3.org/1999/xlink" width="128" height="128"><defs><style type="text/css"></style></defs><path d="M512 85.333333C396.8 85.333333 290.133333 128 209.066667 209.066667c-8.533333 12.8-25.6 25.6-38.4 42.666666V170.666667c0-25.6-17.066667-42.666667-42.666667-42.666667s-42.666667 17.066667-42.666667 42.666667v209.066666c4.266667 4.266667 8.533333 4.266667 8.533334 4.266667 0 4.266667 4.266667 4.266667 4.266666 8.533333 0 0 4.266667 0 4.266667 4.266667 4.266667 0 4.266667 4.266667 8.533333 4.266667h204.8c25.6 0 42.666667-17.066667 42.666667-42.666667s-17.066667-42.666667-42.666667-42.666667H226.133333c17.066667-17.066667 34.133333-38.4 46.933334-51.2C337.066667 204.8 422.4 170.666667 512 170.666667c187.733333 0 341.333333 153.6 341.333333 341.333333s-153.6 341.333333-341.333333 341.333333c-89.6 0-174.933333-34.133333-243.2-98.133333-17.066667-17.066667-42.666667-17.066667-59.733333 0s-17.066667 42.666667 0 59.733333C290.133333 896 396.8 938.666667 512 938.666667c234.666667 0 426.666667-192 426.666667-426.666667S746.666667 85.333333 512 85.333333z" p-id="2336"></path></svg>